<?xml version="1.0" encoding="utf-8"?>
<!-- Generator: Adobe Illustrator 16.0.0, SVG Export Plug-In . SVG Version: 6.00 Build 0)  -->
<!DOCTYPE svg PUBLIC "-//W3C//DTD SVG 1.1//EN" "http://www.w3.org/Graphics/SVG/1.1/DTD/svg11.dtd">
<svg version="1.1" id="Pikachu" xmlns="http://www.w3.org/2000/svg" xmlns:xlink="http://www.w3.org/1999/xlink" x="0px" y="0px"
	 width="640px" height="480px" viewBox="0 0 450 280" enable-background="new 0 0 640 480" xml:space="preserve">
<path fill="#CFA436" d="M215.333,240.287c0,0-0.208,9.809-2,11.461c-2.397,2.21-15.333,0-15.333,0l-21.067-18.566"/>
<g id="Tail">
	<polygon fill="#A67C52" points="290.333,88.252 285,83.5 286.538,78.98 261,75 256.5,101.879 254.529,119.418 263.5,126.879 
		275.5,94.008 286.208,96.807 285,93.833 	"/>
	<polygon fill="#FFCA42" points="311,51.25 299.5,81 286.538,78.98 285,83.5 290.333,88.252 285,93.833 286.208,96.807 
		309.25,102.83 324.334,69.365 391.5,76.063 423,30.125 	"/>
</g>
<g id="Ear_Tips">
	<path d="M62.5,39c12.114-7.115,27.434-6.25,27.468-6.248C88.579,15.683,85,2.315,85,2.315S50.337,30.736,33.95,65.215
		C33.961,65.199,45.508,48.979,62.5,39z"/>
	<path fill="#FFCA42" d="M316,236l-17-33.5c0,0-7.249-13.064-9.5-45c-4.021-57.027-69.089-61.245-82.921-61.496
		c2.749-3.107,5.333-6.352,7.755-9.666c-0.013,0.015-0.028,0.023-0.041,0.041c-1.162-5.926-4.129-15.802-11.459-21.164
		c-9.307-6.808-21.656-6.679-30.478-5.344c0.001-0.001,0.001-0.003,0.002-0.004c-11.994,7.905-22.4,17.069-28.065,27.251
		c-0.332,0.598-1.205,2.663-1.075,2.353c-0.575-0.627-3.017-1.99-11.223-4.945C116.048,78.784,93,79,93,79l9.625-6.625
		c0,0-11.625,0.875-14.787,2.797c-1.333,0.81,2.537-6.672,2.537-6.672s-2.495,1.707-1.854-1.403
		c2.33-11.309,2.324-23.563,1.447-34.343c0,0,0,0,0,0C89.934,32.75,74.614,31.885,62.5,39c-16.992,9.979-28.539,26.199-28.55,26.215
		c0,0,0,0,0,0c-5.171,10.879-8.527,22.361-8.393,33.745c0.025,2.15-1.224-4.126-1.224-4.126s0.77,8.149-0.786,9.876
		c-4.493,4.991-13.438,18.286-15.048,46.207c-1.758,30.498,15.551,47.793,15.551,47.793l-8.226,13.242L5.373,228.777l-3.186,2.973
		L7.25,235l-2.531,4.842l5.781-0.592l1.833,4.333l3.42-3.413l37.231-22.52c0,0,21.737,9.209,43.765,7.85
		c20.25-1.25,37.75-4.5,37.75-4.5l8.773,22.098l0.352,7.777L149,249l6.615,5.689L159.5,249l6.875,2.375l-1.844-7.867L165.667,226
		c0,0,11.651,11.322,39.333,15.5c38.637,5.831,68.333-5.5,68.333-5.5l25.833,16c0,0,14.073,0.499,16.834-2.75
		C318.146,246.726,316,236,316,236z"/>
</g>
<g id="Stripes">
	<path fill="#A67C52" d="M226.223,111.893c0-6.389-2.316-14.325-2.319-14.335c-0.004-0.001-0.008-0.001-0.013-0.002l0,0
		c-6.278-0.979-11.622-1.354-15.183-1.49l0.792,0.501c0,0,4.667,5.185,7.437,14.334c3.302,10.908,5.688,21.537,5.688,21.537
		S226.223,123.5,226.223,111.893z"/>
	<path fill="#A67C52" d="M240,134c0,0,7.032-6.602,11.109-15.61c3.409-7.534,3.42-11.591,3.42-11.615
		c-4.285-2.092-8.675-3.782-12.992-5.143v0c-0.005-0.002-0.011-0.003-0.016-0.005c0.003,0.013,1.478,7.046,0.657,14.379
		C241.269,124.14,240,134,240,134z"/>
	<path fill="#A67C52" d="M268.962,116.003c-0.005,0.092-0.529,8.893-4.462,14.247c-4.082,5.558-11.166,11.625-11.166,11.625
		s9.541-2.125,15.465-5.602c5.558-3.262,10.16-9.477,10.19-9.518C276.063,122.648,272.664,119.089,268.962,116.003z"/>
</g>
<g id="Face">
	<path fill="none" stroke="#603813" stroke-width="2" stroke-miterlimit="10" d="M37,123.295c0,0,9.872-6.62,16.633-4.014
		c6.883,2.653,6.883,9.536,6.883,9.536"/>
	<path fill="none" stroke="#603813" stroke-width="2" stroke-miterlimit="10" d="M100.924,136.749c0,0,10.869-4.809,17.076-1.068
		c6.319,3.805,5.125,10.584,5.125,10.584"/>
	<path fill="none" stroke="#603813" stroke-width="2" stroke-miterlimit="10" d="M53.984,173.819
		c-1.425-0.019,9.229,0.242,15.801-2.388c0,0,2.872,9.385,10.531,9.908"/>
	<polygon fill="#603813" stroke="#603813" stroke-width="2" stroke-miterlimit="10" points="73.781,150.326 71.2,143.443 
		79.158,146.265 	"/>
	<circle fill="#FFB342" cx="112.5" cy="177.75" r="12.75"/>
	<defs>
		<filter id="Adobe_OpacityMaskFilter" filterUnits="userSpaceOnUse" x="15.75" y="137.875" width="25.25" height="25.25">
			<feFlood  style="flood-color:white;flood-opacity:1" result="back"/>
			<feBlend  in="SourceGraphic" in2="back" mode="normal"/>
		</filter>
	</defs>
	<mask maskUnits="userSpaceOnUse" x="15.75" y="137.875" width="25.25" height="25.25" id="SVGID_1_">
		<g filter="url(#Adobe_OpacityMaskFilter)">
		</g>
	</mask>
	<circle mask="url(#SVGID_1_)" fill="#FFB342" cx="28.375" cy="150.5" r="12.625"/>
</g>
<path fill="#CFA436" d="M206.579,96.004c0,0-14.746,21.262-28.329,21.81c-6.229,0.251,11.395,1.458,16.083-2.647"/>
<path fill="#CFA436" d="M273.333,236c0,0-15.713,5.958-28.083,3.826C213.329,234.326,194,191.5,194,191.5s8.302,19.495,32.223,33.5
	C245.47,236.269,273.333,236,273.333,236z"/>
<polyline fill="#CFA436" points="164.531,243.508 165.667,226 172,207.5 "/>
<polygon fill="#CFA436" points="52.985,217.65 45.813,212.25 30.917,228.251 15.754,240.17 "/>
<path fill="#CFA436" d="M93,79l-1.634-5.048c-2.16,0.412-2.487,0.587-3.528,1.22c-1.333,0.81,2.537-6.672,2.537-6.672
	s-2.495,1.707-1.854-1.403c2.032-9.863,2.286-20.444,1.737-30.141c0,0-1.345,17.117-2.674,25.169C86.811,66.8,84.25,79,84.25,79H93z
	"/>
<polyline fill="#CFA436" points="307.674,251.748 302.088,249.001 296.501,244.167 "/>
<polyline fill="#CFA436" points="314.449,250.315 306.001,246.001 303.834,240.287 "/>
<path fill="#FFCA42" d="M215.081,244.605c0,0-6.519,1.332-16.519-0.605c-6.531-1.266-18.37-7.945-18.37-7.945L198,251.748
	c0,0,12.936,2.21,15.333,0C214.319,250.839,214.825,247.461,215.081,244.605z"/>
<polyline fill="#CFA436" points="205.467,252.624 200.333,247.957 198.333,245.301 "/>
<polyline fill="#CFA436" points="211.36,252.335 207.231,248.963 206,245 "/>
<path d="M172.356,59.871c8.821-1.335,21.171-1.463,30.478,5.344c7.33,5.362,10.297,15.238,11.459,21.164
	c4.452-6.086,8.374-12.401,11.753-18.539C237.604,46.85,243,28,243,28s-32.983,9.738-61.667,26.332
	C178.275,56.101,175.271,57.95,172.356,59.871z"/>
</svg>
