<?xml version="1.0" encoding="utf-8"?>
<!-- Generator: Adobe Illustrator 16.0.0, SVG Export Plug-In . SVG Version: 6.00 Build 0)  -->
<!DOCTYPE svg PUBLIC "-//W3C//DTD SVG 1.1//EN" "http://www.w3.org/Graphics/SVG/1.1/DTD/svg11.dtd">
<svg version="1.1" id="Layer_1" xmlns="http://www.w3.org/2000/svg" xmlns:xlink="http://www.w3.org/1999/xlink" x="0px" y="0px"
	 width="640px" height="480px" viewBox="0 0 640 480" enable-background="new 0 0 640 480" xml:space="preserve">
<path d="M175.577,180.292c-4.043-6.468-9.967-32.206-6.528-39.319c4.019-8.303,27.529-27.516,37.249-30.895
	c11.142-3.873,47.104-9.253,56.302-3.451c13.916,8.775,18.874,40.308,12.047,54.75c-4.61,9.758-32.839,24.001-45.183,26.04
	C216.219,189.603,181.718,190.104,175.577,180.292z"/>
<path d="M162.808,169.929c-4.043-6.466-9.966-32.208-6.528-39.319c4.016-8.3,27.528-27.512,37.249-30.888
	c11.143-3.876,41.046-13.126,50.241-7.327c2.817,1.782,3.804,9.042,3.804,9.042s-22.877,1.55-37.027,5.239
	c-18.02,4.694-35.316,21.326-42.078,29.299c-6.231,7.345,0.327,31.799,0.327,31.799S163.97,171.785,162.808,169.929z"/>
<path d="M207.681,311.849c-5.108-13.304-9.192-63.404-2.21-75.828c8.15-14.5,49.715-44.074,65.947-47.712
	c18.609-4.171,77.167-4.229,90.645,9.263c20.391,20.414,21.72,81.148,7.802,106.422c-9.4,17.072-57.465,35.976-77.606,36.354
	C270.639,340.752,215.433,332.033,207.681,311.849z"/>
<path d="M189.449,288.771c-5.108-13.304-9.192-63.405-2.21-75.827c8.149-14.501,49.715-44.075,65.946-47.714
	c18.61-4.171,68.296-13.207,81.774,0.287c4.133,4.137,4.186,18.082,4.186,18.082s-36.856-3.488-60.233-0.511
	c-29.759,3.791-60.856,30.248-73.331,43.367c-11.482,12.073-6.122,59.934-6.122,59.934S190.916,292.59,189.449,288.771z"/>
<path d="M383.046,243.434c-0.214,19.636,8.749,10.185,13.022,6.449c13.395-11.706,7.409-37.272,20.233-40.949
	c3.846-1.104,14.225-3.75,24.094-11.276c7.848-5.986,18.812-24.872,17.973-48.758c-0.507-14.464-3.755-22.822-14.05-38.146
	c-18.831-28.03-53.789-26.267-53.789-26.267s29.669,19.168,43.383,43.581c9.57,17.038,7.034,47.596-13.538,56.954
	c-20.583,9.362-53.718,9.99-53.718,9.99S383.333,217.06,383.046,243.434z"/>
<path d="M371.25,83.5c12.715,0.574,14.161,1.255,16.69,3.333l21.618,16.809c0,0-75.176-9.394-100.304,8.762
	c-5.706,4.121-12.28,10.598-14.089,13.018c-4.211,5.632-3.156,17.048-8.306,23.036c-2.152,2.504-5.345,2.595-5.255,1.783
	c3.51-31.73-13.608-44.205-13.608-44.205S338.79,82.034,371.25,83.5z"/>
<path d="M162.75,334.75c-13,25.5,50.75-24.04,44.004,5.75c-2.54,11.215-37.406,17.478-46.754,26.5
	c-4.157,4.013-6.857,12.189-6.857,12.189L150.5,378.5c0,0,2.875-7,6.829-12.511c5.179-7.218,46.891-18.087,44.671-29.322
	c-2.75-13.917-42.611,28.415-45.25,7.583c-1.042-8.226,2.197-12.833,7.125-19.5C166,321.875,198.5,295.5,198.5,295.5l2,6.5
	C200.5,302,168.061,324.333,162.75,334.75z"/>
</svg>
